HIERARCHY
ROOT Hips
{
	OFFSET -0.001795 -0.223333 0.028219
	CHANNELS 6 Xposition Yposition Zposition Zrotation Yrotation Xrotation 
	JOINT LeftUpLeg
	{
		OFFSET 0.069520 -0.091406 -0.006815
		CHANNELS 3 Zrotation Yrotation Xrotation
		JOINT LeftLeg
		{
			OFFSET 0.034277 -0.375199 -0.004496
			CHANNELS 3 Zrotation Yrotation Xrotation
			JOINT LeftFoot
			{
				OFFSET -0.013596 -0.397961 -0.043693
				CHANNELS 3 Zrotation Yrotation Xrotation
				JOINT LeftToe
				{
					OFFSET 0.026358 -0.055791 0.119288
					CHANNELS 3 Zrotation Yrotation Xrotation
					End Site
					{
						OFFSET 0.000000 0.000000 0.000000
					}
				}
			}
		}
	}
	JOINT RightUpLeg
	{
		OFFSET -0.067670 -0.090522 -0.004320
		CHANNELS 3 Zrotation Yrotation Xrotation
		JOINT RightLeg
		{
			OFFSET -0.038290 -0.382569 -0.008850
			CHANNELS 3 Zrotation Yrotation Xrotation
			JOINT RightFoot
			{
				OFFSET 0.015774 -0.398415 -0.042312
				CHANNELS 3 Zrotation Yrotation Xrotation
				JOINT RightToe
				{
					OFFSET -0.025372 -0.048144 0.123348
					CHANNELS 3 Zrotation Yrotation Xrotation
					End Site
					{
						OFFSET 0.000000 0.000000 0.000000
					}
				}
			}
		}
	}
	JOINT Spine
	{
		OFFSET -0.002533 0.108963 -0.026696
		CHANNELS 3 Zrotation Yrotation Xrotation
		JOINT Spine1
		{
			OFFSET 0.005487 0.135180 0.001092
			CHANNELS 3 Zrotation Yrotation Xrotation
			JOINT Spine2
			{
				OFFSET 0.001457 0.052922 0.025425
				CHANNELS 3 Zrotation Yrotation Xrotation
				JOINT Neck
				{
					OFFSET -0.002778 0.213870 -0.042857
					CHANNELS 3 Zrotation Yrotation Xrotation
					JOINT Head
					{
						OFFSET 0.005152 0.064970 0.051349
						CHANNELS 3 Zrotation Yrotation Xrotation
						End Site
						{
							OFFSET 0.000000 0.000000 0.000000
						}
					}
				}
				JOINT LeftShoulder
				{
					OFFSET 0.078845 0.121749 -0.034090
					CHANNELS 3 Zrotation Yrotation Xrotation
					JOINT LeftArm
					{
						OFFSET 0.090977 0.030469 -0.008868
						CHANNELS 3 Zrotation Yrotation Xrotation
						JOINT LeftForeArm
						{
							OFFSET 0.259612 -0.012772 -0.027456
							CHANNELS 3 Zrotation Yrotation Xrotation
							JOINT LeftHand
							{
								OFFSET 0.249234 0.008986 -0.001171
								CHANNELS 3 Zrotation Yrotation Xrotation
								End Site
								{
									OFFSET 0.000000 0.000000 0.000000
								}
							}
						}
					}
				}
				JOINT RightShoulder
				{
					OFFSET -0.081759 0.118833 -0.038615
					CHANNELS 3 Zrotation Yrotation Xrotation
					JOINT RightArm
					{
						OFFSET -0.096012 0.032551 -0.009143
						CHANNELS 3 Zrotation Yrotation Xrotation
						JOINT RightForeArm
						{
							OFFSET -0.253742 -0.013329 -0.021401
							CHANNELS 3 Zrotation Yrotation Xrotation
							JOINT RightHand
							{
								OFFSET -0.255298 0.007772 -0.005559
								CHANNELS 3 Zrotation Yrotation Xrotation
								End Site
								{
									OFFSET 0.000000 0.000000 0.000000
								}
							}
						}
					}
				}
			}
		}
	}
}
MOTION
Frames: 10
Frame Time: 0.050000
-0.001943 0.954620 -0.085936 1.489470 4.728960 5.165412 3.767570 -0.215579 -1.607417 -1.884593 0.226223 -2.358799 4.461425 12.797795 14.997936 0.000000 0.000000 0.000000 -6.274127 0.338439 -4.069809 3.942527 -0.467917 -3.086141 -4.265137 -12.781649 14.885632 0.000000 0.000000 0.000000 9.917516 -0.719600 3.334004 -5.783582 2.274100 -16.896302 -2.876922 2.459691 27.441176 12.378388 -7.098206 -15.879851 0.000000 0.000000 0.000000 -1.977390 -19.185899 6.560219 -31.474404 -34.965979 2.829178 119.173304 -67.205410 -92.867252 0.000000 0.000000 0.000000 9.099711 4.645185 2.262814 35.771073 36.069810 4.825640 -75.035030 85.307069 -62.310739 0.000000 0.000000 0.000000 
-0.001904 0.954401 -0.087549 1.508207 5.019586 5.353642 3.814988 -0.226554 -1.724334 -1.916007 0.233346 -2.736267 4.162066 12.415285 15.125015 0.000000 0.000000 0.000000 -6.412645 0.336761 -4.116355 3.902765 -0.467829 -3.292165 -4.206724 -12.638314 14.911991 0.000000 0.000000 0.000000 10.013848 -0.671271 2.852039 -5.862702 2.305098 -16.807836 -2.943882 2.476872 27.584165 12.522841 -7.243079 -15.634796 0.000000 0.000000 0.000000 -1.902891 -19.396158 6.615982 -31.179682 -34.786018 2.719498 118.658824 -67.015539 -92.219348 0.000000 0.000000 0.000000 9.288890 4.415546 2.196562 35.926517 36.066294 4.851492 -74.461297 85.052447 -61.399309 0.000000 0.000000 0.000000 
-0.001872 0.954304 -0.089153 1.519265 5.146530 5.348286 3.752670 -0.221765 -1.653549 -1.944756 0.237855 -2.926217 4.074676 12.308332 15.160709 0.000000 0.000000 0.000000 -6.467037 0.330665 -4.044739 3.964700 -0.474834 -3.345863 -4.204134 -12.620223 14.942933 0.000000 0.000000 0.000000 10.125358 -0.656640 2.683467 -5.965565 2.338996 -16.780636 -2.926868 2.503163 27.694292 12.539796 -7.225340 -15.708896 0.000000 0.000000 0.000000 -1.958676 -19.599993 6.684881 -30.926745 -34.570620 2.617606 118.150208 -66.892970 -91.605154 0.000000 0.000000 0.000000 9.489392 4.363243 2.200147 36.032048 35.873645 4.801659 -75.868804 84.863280 -62.508519 0.000000 0.000000 0.000000 
-0.001831 0.954203 -0.090751 1.506509 5.283074 5.496184 3.741214 -0.226957 -1.714767 -1.976044 0.244229 -3.250500 3.797091 11.928702 15.207572 0.000000 0.000000 0.000000 -6.499079 0.331257 -4.070802 3.988748 -0.479393 -3.569018 -4.116248 -12.456184 15.055838 0.000000 0.000000 0.000000 10.177897 -0.600534 2.185198 -6.037258 2.365552 -16.666608 -2.891672 2.554300 27.921649 12.648577 -7.339286 -15.542641 0.000000 0.000000 0.000000 -1.965736 -19.915052 6.787107 -30.625686 -34.399934 2.511334 117.340256 -66.807625 -90.712400 0.000000 0.000000 0.000000 9.670838 4.278569 2.193585 36.109319 35.676663 4.735718 -76.556093 84.678863 -62.907354 0.000000 0.000000 0.000000 
-0.001811 0.954087 -0.092366 1.503248 5.322253 5.559731 3.723184 -0.229052 -1.745932 -1.981760 0.246220 -3.375192 3.646841 11.701351 15.145038 0.000000 0.000000 0.000000 -6.480875 0.332054 -4.076215 3.988688 -0.480520 -3.703644 -4.075289 -12.375125 15.033704 0.000000 0.000000 0.000000 10.223231 -0.567722 1.896982 -6.098117 2.388336 -16.539028 -2.872702 2.652968 28.001693 12.733957 -7.399482 -15.496035 0.000000 0.000000 0.000000 -1.995350 -20.115770 6.851898 -30.455893 -34.293070 2.451439 117.357540 -66.864613 -90.869114 0.000000 0.000000 0.000000 9.866090 4.279596 2.223533 36.162137 35.525673 4.688982 -77.184934 84.406254 -63.188208 0.000000 0.000000 0.000000 
-0.001779 0.953854 -0.093959 1.538037 5.603992 5.503169 3.706307 -0.218712 -1.555382 -2.043777 0.253292 -3.683656 3.316194 11.241005 15.111124 0.000000 0.000000 0.000000 -6.467861 0.320340 -3.926126 3.907354 -0.477207 -3.847942 -3.912971 -12.032832 14.890192 0.000000 0.000000 0.000000 10.276996 -0.524983 1.548783 -6.158788 2.420142 -16.323916 -2.956438 2.602881 28.136684 12.745808 -7.460041 -15.268258 0.000000 0.000000 0.000000 -1.969602 -20.505685 6.974622 -30.279077 -34.184887 2.389122 117.127010 -66.834143 -90.662540 0.000000 0.000000 0.000000 9.957951 4.268460 2.243149 36.236008 35.292431 4.619916 -79.929845 84.137988 -65.491022 0.000000 0.000000 0.000000 
-0.001743 0.953690 -0.095567 1.560311 5.736687 5.441864 3.684737 -0.212242 -1.448416 -2.093532 0.256724 -3.756464 3.247638 11.137786 15.034604 0.000000 0.000000 0.000000 -6.504751 0.313707 -3.857593 3.954188 -0.482713 -3.876394 -3.845149 -11.883476 14.791391 0.000000 0.000000 0.000000 10.350386 -0.510953 1.421990 -6.217086 2.442557 -16.272352 -3.007198 2.574495 28.203653 12.842915 -7.529858 -15.267935 0.000000 0.000000 0.000000 -2.032850 -20.710166 7.046962 -30.223500 -34.032711 2.344198 117.180816 -66.940133 -90.869754 0.000000 0.000000 0.000000 10.078831 4.299108 2.273806 36.219430 34.950056 4.496439 -81.356189 83.944584 -66.649940 0.000000 0.000000 0.000000 
-0.001702 0.953513 -0.097191 1.591637 5.942980 5.390370 3.687927 -0.208924 -1.378246 -2.137144 0.259428 -3.839239 3.018382 10.845161 15.123655 0.000000 0.000000 0.000000 -6.581128 0.302250 -3.718792 3.996533 -0.489670 -4.068079 -3.715101 -11.629770 14.845162 0.000000 0.000000 0.000000 10.429581 -0.471618 1.094685 -6.332483 2.485321 -16.167971 -3.089075 2.521140 28.352310 12.914563 -7.589198 -15.250674 0.000000 0.000000 0.000000 -1.955014 -21.152315 7.185243 -29.919326 -33.860802 2.249750 116.291445 -66.831330 -89.846621 0.000000 0.000000 0.000000 10.067161 4.304682 2.288846 36.191528 34.585712 4.362168 -81.635513 83.795785 -66.725688 0.000000 0.000000 0.000000 
-0.001652 0.953370 -0.098836 1.624453 6.075127 5.319981 3.625349 -0.202621 -1.296637 -2.101083 0.255500 -3.750373 2.906561 10.660498 14.968920 0.000000 0.000000 0.000000 -6.536540 0.294732 -3.604723 3.949934 -0.487848 -4.172809 -3.613951 -11.420570 14.754984 0.000000 0.000000 0.000000 10.464097 -0.447148 0.909214 -6.396056 2.513987 -16.002571 -3.170075 2.447143 28.415578 12.968359 -7.643184 -15.215492 0.000000 0.000000 0.000000 -2.051508 -21.483467 7.307172 -29.761329 -33.707373 2.194897 116.019877 -67.032436 -89.788819 0.000000 0.000000 0.000000 10.161894 4.450785 2.363552 35.887582 34.392369 4.229963 -80.644720 83.680038 -65.710775 0.000000 0.000000 0.000000 
-0.001608 0.953200 -0.100471 1.688267 6.297511 5.165787 3.552535 -0.186024 -1.047647 -2.102970 0.255002 -3.772477 2.674078 10.323320 14.883727 0.000000 0.000000 0.000000 -6.523879 0.280568 -3.416515 3.931428 -0.489589 -4.301442 -3.393914 -10.985080 14.664373 0.000000 0.000000 0.000000 10.490915 -0.400463 0.576177 -6.467690 2.551776 -15.738964 -3.283809 2.277045 28.563020 12.822397 -7.565947 -15.158265 0.000000 0.000000 0.000000 -2.021024 -21.954959 7.465323 -29.523251 -33.403439 2.094498 114.981050 -66.779240 -88.405637 0.000000 0.000000 0.000000 10.027815 4.686917 2.459720 35.637119 34.005426 4.053898 -80.739798 83.605740 -65.782363 0.000000 0.000000 0.000000 
